<?xml version="1.0" standalone="no"?><!-- Generator: Gravit.io --><svg xmlns="http://www.w3.org/2000/svg" xmlns:xlink="http://www.w3.org/1999/xlink" style="isolation:isolate" viewBox="0 0 80 320" width="80" height="320"><defs><clipPath id="_clipPath_vPhGZ9KdJVdkovSa3lxejJ5IM7DZO4Hx"><rect width="80" height="320"/></clipPath></defs><g clip-path="url(#_clipPath_vPhGZ9KdJVdkovSa3lxejJ5IM7DZO4Hx)"><path d=" M 20 60 L 50 60 L 50 30 L 20 30 L 20 60 Z " fill="none" stroke-width="5" stroke="rgb(0,0,0)" stroke-linejoin="round" stroke-linecap="round" stroke-miterlimit="3"/><path d=" M 20 30 L 30 20 L 60 20 L 60 50 L 50 60" fill="none" stroke-width="5" stroke="rgb(0,0,0)" stroke-linejoin="round" stroke-linecap="round" stroke-miterlimit="3"/><path d=" M 39.994 93.118 Q 24.591 115.575 24.639 131.506 Q 24.687 147.437 39.994 146.861 Q 55.781 147.437 55.349 131.506 Q 54.918 115.575 39.994 93.118 Z " fill="none" stroke-width="5" stroke="rgb(0,0,0)" stroke-linejoin="round" stroke-linecap="round" stroke-miterlimit="3"/><path d=" M 20 220 C 14.481 220 10 215.519 10 210 C 10 204.481 14.481 200 20 200 C 20.014 200 20.028 200 20.042 200" fill="none" stroke-width="5" stroke="rgb(0,0,0)" stroke-linejoin="round" stroke-linecap="round" stroke-miterlimit="3"/><path d=" M 60 200 C 65.519 200 70 204.481 70 210 C 70 215.519 65.519 220 60 220" fill="none" stroke-width="5" stroke="rgb(0,0,0)" stroke-linejoin="round" stroke-linecap="round" stroke-miterlimit="3"/><path d=" M 20.205 199.765 C 20.07 199.031 20 198.273 20 197.5 C 20 190.602 25.601 185 32.5 185 C 37.374 185 41.599 187.795 43.661 191.868" fill="none" stroke-width="5" stroke="rgb(0,0,0)" stroke-linejoin="round" stroke-linecap="round" stroke-miterlimit="3"/><path d=" M 44.136 191.901 C 45.784 190.705 47.81 190 50 190 C 55.519 190 60.001 194.481 60 200" fill="none" stroke-width="5" stroke="rgb(0,0,0)" stroke-linejoin="round" stroke-linecap="round" stroke-miterlimit="3"/><path d=" M 30 256.5 C 30 250.981 34.481 246.5 40 246.5 C 45.519 246.5 50 250.981 50 256.5" fill="none" stroke-width="5" stroke="rgb(0,0,0)" stroke-linejoin="round" stroke-linecap="round" stroke-miterlimit="3"/><line x1="30" y1="286.5" x2="30" y2="256.5" stroke-width="5" stroke="rgb(0,0,0)" stroke-linejoin="round" stroke-linecap="round" stroke-miterlimit="3"/><line x1="50" y1="256.5" x2="50" y2="286.5" stroke-width="5" stroke="rgb(0,0,0)" stroke-linejoin="round" stroke-linecap="round" stroke-miterlimit="3"/><path d=" M 50.008 287.331 C 53.071 290.078 55 294.065 55 298.5 C 55 306.779 48.279 313.5 40 313.5 C 31.721 313.5 25 306.779 25 298.5 C 25 294.02 26.968 289.996 30.086 287.247" fill="none" stroke-width="5" stroke="rgb(0,0,0)" stroke-linejoin="round" stroke-linecap="round" stroke-miterlimit="3"/><path d=" M 34 127 Q 32.875 133.75 36 137" fill="none" stroke-width="5" stroke="rgb(0,0,0)" stroke-linejoin="round" stroke-linecap="round" stroke-miterlimit="3"/><line x1="20" y1="220" x2="60" y2="220" stroke-width="5" stroke="rgb(0,0,0)" stroke-linejoin="round" stroke-linecap="round" stroke-miterlimit="3"/><line x1="50" y1="260" x2="40" y2="260" stroke-width="5" stroke="rgb(0,0,0)" stroke-linejoin="round" stroke-linecap="round" stroke-miterlimit="3"/><line x1="50" y1="270" x2="40" y2="270" stroke-width="5" stroke="rgb(0,0,0)" stroke-linejoin="round" stroke-linecap="round" stroke-miterlimit="3"/><line x1="50" y1="280" x2="40" y2="280" stroke-width="5" stroke="rgb(0,0,0)" stroke-linejoin="round" stroke-linecap="round" stroke-miterlimit="3"/><line x1="50" y1="30" x2="60" y2="20" stroke-width="5" stroke="rgb(0,0,0)" stroke-linejoin="round" stroke-linecap="round" stroke-miterlimit="3"/></g></svg>
